<?xml version="1.0" encoding="utf-8"?>
<!-- Generator: Adobe Illustrator 21.0.0, SVG Export Plug-In . SVG Version: 6.00 Build 0)  -->
<svg version="1.1" id="Layer_1" xmlns="http://www.w3.org/2000/svg" xmlns:xlink="http://www.w3.org/1999/xlink" x="0px" y="0px"
	 viewBox="0 0 300 300" style="enable-background:new 0 0 300 300;" xml:space="preserve">
<g>
	<path d="M150,298.4C68.5,298.5,1.5,232,1.3,150.9C1.2,68.7,67.6,1.7,149.4,1.6c82.1-0.1,149.1,66.3,149.2,147.7
		C298.8,231.7,232.4,298.2,150,298.4z M2.4,149.6c-0.3,80.5,65.7,147.2,146.2,147.7c81.5,0.5,148.5-65.2,148.8-145.7
		c0.3-82.2-65-148.3-146.8-148.7C69.4,2.4,2.8,68.4,2.4,149.6z"/>
	<path d="M149.8,294.5C71.6,295.1,5.7,230.2,5.2,152.2C4.6,71.7,68.8,5.9,148.4,5.4c80.1-0.5,146,64,146.5,143.4
		C295.3,229.3,230.9,294,149.8,294.5z M6.3,149.8C6.5,229.6,71,293.7,150.8,293.4c78.4-0.2,143-64.9,142.8-143
		C293.4,70.3,229.2,6.5,149,6.7C70.6,7,6.1,71.6,6.3,149.8z"/>
	<path d="M149.9,8.9C228.1,9,291.3,72.1,291.3,150c0,77.7-63.6,141.1-141.5,141.2c-77.7,0-141.5-63.8-141.3-141.4
		C8.8,71.9,72.1,8.8,149.9,8.9z M288.1,136.4c-6.5-3.5-12.3-6.7-18.7-10.1c4.5-5.6,8.7-10.8,13.3-16.5c-7.1-2.2-13.5-4.2-20.3-6.3
		c3.4-6.4,6.5-12.4,9.8-18.8c-7.2-0.8-14-1.5-21.1-2.2c2-6.9,3.9-13.3,5.9-20.3c-7.3,0.7-14,1.2-21,1.9c0.6-7.2,1.2-13.8,1.8-21
		c-7.1,2.1-13.5,4-20.3,6c-0.8-7.2-1.5-13.9-2.3-21c-6.4,3.3-12.4,6.5-18.8,9.8c-2.2-6.9-4.2-13.3-6.4-20.2
		c-5.8,4.7-11,8.9-16.5,13.4c-3.5-6.4-6.7-12.3-10.2-18.6c-4.7,5.6-9,10.8-13.6,16.3c-4.6-5.5-8.9-10.7-13.6-16.3
		c-3.5,6.4-6.7,12.4-10.1,18.7c-5.6-4.5-10.9-8.8-16.5-13.3c-2.2,7.1-4.2,13.5-6.3,20.2c-6.5-3.4-12.5-6.5-18.8-9.7
		c-0.8,7.4-1.5,14-2.3,21c-7-2-13.4-3.9-20.3-5.9c0.6,7.4,1.2,14,1.9,21c-7.3-0.6-14-1.2-21.1-1.8c2.1,7.1,4,13.5,6,20.3
		c-7.2,0.8-13.9,1.5-21.1,2.3c3.4,6.4,6.5,12.4,9.9,18.8c-6.8,2.1-13.3,4.1-20.3,6.3c4.7,5.8,8.9,10.9,13.4,16.5
		c-6.4,3.4-12.3,6.7-18.7,10.1c5.7,4.7,11,9.1,16.4,13.6c-5.6,4.7-10.8,9-16.3,13.6c6.5,3.5,12.5,6.8,18.7,10.2
		c-4.6,5.7-8.8,10.9-13.4,16.5c7.1,2.2,13.6,4.2,20.3,6.3c-3.4,6.4-6.5,12.4-9.8,18.8c7.3,0.8,14.1,1.5,21.1,2.3
		c-2,6.9-3.9,13.3-5.9,20.3c7.3-0.6,14-1.2,21.1-1.8c-0.6,7.2-1.2,13.8-1.9,21c7-2.1,13.5-4,20.3-6c0.8,7.2,1.5,13.8,2.3,21
		c6.5-3.4,12.5-6.5,18.8-9.8c2.2,6.9,4.2,13.3,6.3,20.2c5.7-4.6,11-8.8,16.5-13.3c3.5,6.4,6.7,12.3,10.2,18.6
		c4.8-5.7,9.1-11,13.6-16.3c4.7,5.6,9,10.8,13.6,16.3c3.5-6.4,6.7-12.4,10.1-18.7c5.7,4.6,10.9,8.8,16.6,13.3
		c2.2-7.1,4.2-13.5,6.3-20.3c6.3,3.3,12.3,6.4,18.8,9.8c0.8-7.2,1.5-13.9,2.3-21c6.9,2,13.3,3.9,20.3,5.9c-0.6-7.3-1.2-14-1.8-21.1
		c7.3,0.6,14,1.2,21.1,1.9c-2.1-7.1-4-13.5-6.1-20.3c7.2-0.8,13.9-1.5,21.1-2.3c-3.4-6.5-6.6-12.5-9.9-18.7
		c6.9-2.2,13.4-4.2,20.3-6.4c-4.7-5.8-8.9-11-13.4-16.4c6.4-3.5,12.3-6.7,18.7-10.1c-5.7-4.7-10.8-9.1-16.3-13.6
		C277.3,145.3,282.4,141.1,288.1,136.4z M26.4,213.5c0.3,0.1,0.6,0.1,0.9,0.2c2.5-4.7,5-9.5,7.7-14.5c-9.4,1.1-10.3,2.1-9.1,10.4
		C26.1,210.9,26.3,212.2,26.4,213.5z M41.4,62.8c-4.7,11-3.1,15.9,5.1,16.8C44.9,74.2,43.3,68.9,41.4,62.8z M80.5,45.8
		c0.3,0,0.6-0.1,0.8-0.1c0.6-5.6,1.1-11.3,1.7-16.9c-2.9,2.3-5,4.8-6.9,7.5c-0.4,0.6-0.5,2-0.1,2.6C77.5,41.3,79.1,43.5,80.5,45.8z
		 M135,12c-10.5,3.6-12.7,7.7-8.3,15.5C129.4,22.5,132,17.6,135,12z M81.7,255c-0.3-0.1-0.6-0.2-0.9-0.3c-1.6,2.2-3.2,4.3-4.7,6.5
		c-0.4,0.6-0.5,1.8-0.1,2.2c2.1,2.7,4.4,5.2,6.6,7.7c0.2-0.1,0.5-0.3,0.7-0.4C82.8,265.5,82.3,260.3,81.7,255z M60.7,44.3
		c-0.3-0.1-0.6-0.1-0.9-0.2c-1.5,3-3.1,5.9-4.5,8.9c-0.3,0.6-0.1,1.7,0.3,2.2c1.8,2.1,3.8,4.1,5.7,6.2c0.3-0.2,0.6-0.4,0.9-0.6
		C61.8,55.3,61.2,49.8,60.7,44.3z M107.5,281.9c0.2-0.1,0.4-0.3,0.7-0.4c-1.6-5.2-3.2-10.4-5.1-16.7c-1.6,3.6-2.9,6-3.8,8.6
		c-0.3,0.7,0.1,2,0.7,2.5C102.4,278,105,279.9,107.5,281.9z M60.1,255.6c0.3-0.1,0.7-0.1,1-0.2c0.5-5.3,0.9-10.6,1.4-15.9
		c-2.7,1.5-4.7,3.2-6.4,5.1c-0.5,0.6-0.7,2.1-0.4,2.8C57,250.3,58.6,252.9,60.1,255.6z M17.7,107.8c0.2,0.2,0.3,0.4,0.5,0.6
		c5.3-1.6,10.6-3.2,16.8-5.1c-4-1.7-7.2-3-10.4-4.4C22.1,102.1,19.9,104.9,17.7,107.8z M198.5,34.5c0.2,0.2,0.5,0.4,0.7,0.7
		c4.8-2.6,9.7-5.2,14.5-7.8c-3.5-1.1-6.8-1.4-10-1.6c-0.6,0-1.6,0.7-1.9,1.3C200.5,29.4,199.5,32,198.5,34.5z M103,34.8
		c1.8-6,3.5-11.4,5.2-17.2c-9.6,5.4-10.4,7.7-6,16.3C102.3,34.1,102.4,34.1,103,34.8z M44.2,60.4c0.1,0.3,0.2,0.7,0.3,1
		c5.3,0.5,10.6,0.9,16.7,1.5c-3-3-5.2-5.3-7.5-7.8C50.5,56.9,47.3,58.7,44.2,60.4z M220.1,47c5.8-1.8,11.2-3.4,16.9-5.1
		c-9.1-5-11.9-4.3-16.7,4C220.2,46,220.2,46.1,220.1,47z M254.6,80.8c0,0.3,0.1,0.6,0.1,0.9c5.4,0.5,10.9,1.1,16.6,1.6
		c-5.3-7.4-8.2-8.1-14.9-3.7C255.8,80,255.2,80.4,254.6,80.8z M28,175.3c-3.8,0.5-6.6,0.8-9.3,1.3c-0.5,0.1-1.3,0.7-1.3,1.1
		c-0.4,3.5-0.7,7-1,10.6c0.3,0.1,0.6,0.1,1,0.2C20.7,184.4,24,180.3,28,175.3z M12.2,134.3c0.2,0.2,0.3,0.4,0.5,0.6
		c4.7-2.5,9.4-5.1,14.5-7.8c-9.3-3.9-9.7-3.7-13.5,4.1C13.1,132.3,12.6,133.3,12.2,134.3z M174.7,28.6c5.2-4.2,9.5-7.8,13.9-11.4
		c-3.6-0.3-6.9,0-10.2,0.6c-0.7,0.1-1.7,1.1-1.9,1.8C175.8,22.2,175.4,24.9,174.7,28.6z M47,219.8c-3.1,1.9-5.4,3.1-7.5,4.6
		c-0.7,0.5-1.4,1.7-1.2,2.3c0.8,3.2,2,6.4,3,9.6c0.3,0,0.6-0.1,0.9-0.1C43.7,231,45.2,225.8,47,219.8z M27.6,124.8
		c-3.8-4.6-7.4-8.9-11.3-13.7c0.1,12.3,0.2,12.3,10.2,14C26.6,125.1,26.7,125,27.6,124.8z M256.2,60.8c-9.4-6.5-12.7-6.1-16.9,1.8
		c4.3-0.4,8.5-0.7,12.7-1.1C253.3,61.4,254.5,61.1,256.2,60.8z M25.3,150.7c-3.5,0-6.1-0.1-8.7,0c-0.8,0-2,0.4-2.2,0.9
		c-1.1,3.3-1.9,6.6-2.9,10c4.6-2.9,8.4-6,12.2-9.2C24.2,152.1,24.4,151.7,25.3,150.7z M11.5,138c1.1,10.4,5.2,13.8,13,10.6
		C20.1,145.1,16,141.7,11.5,138z M35,101.5C32,96,29.4,91.2,26.6,86C23.5,96.3,24.8,98.8,35,101.5z M282.1,108.2
		c0.1-0.2,0.3-0.4,0.4-0.6c-2.1-2.4-4.1-4.9-6.3-7.2c-0.5-0.6-1.8-1-2.5-0.8c-2.6,0.9-5.2,2-8.8,3.5
		C271.4,105,276.8,106.6,282.1,108.2z M161.8,12.2c-10.4,0.7-13.2,4.1-10.7,13C154.7,20.9,158.1,16.7,161.8,12.2z M273,126.1
		c-0.1,0.3-0.1,0.5-0.2,0.8c4.9,2.6,9.9,5.3,14.8,7.9c-1-3.3-2.4-6.1-4-8.7c-0.5-0.7-1.8-1.5-2.6-1.4
		C278.3,124.9,275.7,125.6,273,126.1z M44.7,82c0.1-0.3,0.2-0.6,0.3-0.9c-2.3-1.6-4.6-3.2-7-4.8c-0.4-0.3-1.3-0.3-1.7-0.1
		c-2.6,2.1-5.1,4.3-7.7,6.5c0.2,0.3,0.4,0.5,0.5,0.8C34.3,83,39.5,82.5,44.7,82z M196.8,35.1c1.5-3.5,2.6-5.8,3.5-8.3
		c0.3-0.7,0.1-2.1-0.4-2.5c-2.4-2.1-4.9-4-7.5-5.9c-0.2,0.1-0.4,0.3-0.7,0.4C193.4,23.9,194.9,28.9,196.8,35.1z M101.4,35.6
		C100,32,99.1,29.5,98,27c-0.2-0.6-1.1-1.3-1.6-1.2c-3.3,0.3-6.6,0.8-10,1.2c0,0.3,0,0.5,0,0.8C91.1,30.2,95.7,32.6,101.4,35.6z
		 M265.1,197c3.5,1.5,5.9,2.6,8.5,3.5c0.7,0.2,2,0,2.5-0.6c2.1-2.3,3.9-4.9,5.8-7.3c-0.2-0.2-0.3-0.4-0.5-0.7
		C276.3,193.5,271.2,195.1,265.1,197z M282.7,188.1c0.3-0.1,0.6-0.2,0.9-0.3c-0.3-3-0.5-6.1-1.1-9.1c-0.2-0.8-1.2-1.9-2.1-2.2
		c-2.5-0.7-5.1-1.1-8.6-1.7C275.9,179.7,279.3,183.9,282.7,188.1z M198.9,264.8c1.9,9.6,2.8,10.3,11.4,8.8c0.9-0.2,1.8-0.3,3.8-0.7
		C208.7,270,204.1,267.5,198.9,264.8z M79,47c0.1-0.3,0.2-0.5,0.4-0.8c-1.4-2.2-2.8-4.4-4.3-6.5c-0.4-0.6-1.5-1.2-2-1.1
		c-3.1,0.9-6.2,2-9.2,3c0,0.3,0.1,0.6,0.1,0.8C68.9,44,74,45.5,79,47z M27.4,173.5c-5.5-2.9-10.3-5.5-15.7-8.3
		C15.5,175.7,17.3,176.7,27.4,173.5z M148.4,25c0.3-0.1,0.6-0.3,0.9-0.4c0-2.5,0.1-5-0.1-7.4c-0.1-0.9-0.9-2.1-1.6-2.4
		c-2.9-1-5.8-1.8-8.8-2.6c-0.2,0.2-0.3,0.4-0.5,0.6C141.7,16.9,145,21,148.4,25z M160.8,287.7c0.2-0.2,0.4-0.5,0.5-0.7
		c-3.3-4-6.6-7.9-10.1-12.1c-2.2,9.6-2.1,9.8,6.3,12.1C158.7,287.2,159.8,287.4,160.8,287.7z M17.3,191.8c6.5,9.5,9.7,10.4,16.5,5
		C28.5,195.2,23.3,193.6,17.3,191.8z M275.3,148.5c0.1,0.3,0.1,0.6,0.2,0.9c2.7,0,5.4,0.1,8.1-0.1c0.7,0,1.7-0.7,1.9-1.4
		c1-3,1.8-6,2.6-9c-0.2-0.1-0.5-0.2-0.7-0.4C283.3,141.9,279.3,145.2,275.3,148.5z M235.8,258.5c0-0.3-0.1-0.5-0.1-0.8
		c-5-1.5-10-3-15-4.5c1,2.9,2.5,5.3,4.1,7.6c0.3,0.5,1.4,0.8,1.9,0.6C229.8,260.5,232.8,259.4,235.8,258.5z M133.8,287.2
		c0.2-0.2,0.5-0.3,0.7-0.5c-2.5-4.6-5-9.2-7.6-14.1c-3.8,9.3-3.8,9.3,3.9,13.2C131.8,286.2,132.8,286.7,133.8,287.2z M258.4,236.7
		c4.7-10.2,3.5-14-4.9-16C255.1,225.9,256.6,231,258.4,236.7z M255.4,239.7c-0.1-0.3-0.2-0.5-0.3-0.8c-5.3-0.5-10.5-1-16.8-1.6
		c2.6,2.7,4.7,4.8,6.8,6.9c0.3,0.3,1.2,0.5,1.7,0.3C249.7,242.9,252.5,241.3,255.4,239.7z M270.7,217.6c-0.1-0.3-0.2-0.6-0.3-0.9
		c-5.1,0.5-10.2,1-15.3,1.5c-0.1,0.3-0.2,0.6-0.3,0.8c2.6,1.8,5.2,3.5,8,5.4C265.5,222.1,268.1,219.9,270.7,217.6z M265.2,100.7
		c0.2,0.3,0.4,0.6,0.6,0.8c2.9-1.5,7.1-2.3,8.2-4.6c1.2-2.5-0.4-6.5-0.8-9.8c-0.3,0-0.7,0.1-1,0.1
		C269.9,91.8,267.6,96.3,265.2,100.7z M45.2,219.3c-0.1-0.3-0.1-0.5-0.2-0.8c-5.3-0.5-10.7-1.1-16-1.6c-0.1,0.3-0.3,0.5-0.4,0.8
		c2.8,2.2,5.7,4.4,8.5,6.7C40.1,222.5,42.6,220.9,45.2,219.3z M165.2,287.9c12.1-6,11.3-3.8,8.1-15.1
		C170.7,277.7,168.2,282.3,165.2,287.9z M187.7,283.1c0.1-0.3,0.2-0.6,0.4-0.8c-4-3.3-8.1-6.5-12.9-10.5c0.6,3.7,0.9,6.3,1.5,8.8
		c0.1,0.7,1,1.6,1.6,1.6C181.3,282.6,184.5,282.8,187.7,283.1z M217.5,29.4c-0.3,0.2-0.6,0.3-0.8,0.5c0.5,5.1,1.1,10.2,1.8,16.4
		c2.2-3.2,3.8-5.3,5.1-7.6c0.3-0.6,0.3-1.8-0.1-2.3C221.6,33.9,219.5,31.7,217.5,29.4z M239.8,44.9c-0.3,0.1-0.6,0.1-0.9,0.2
		c-0.4,5.1-0.9,10.3-1.4,16.1c8-6.4,8-6.4,3.4-14.4C240.5,46.1,240.2,45.5,239.8,44.9z M253.3,79.6c9-4,9.9-7.1,4.6-15.4
		C256.3,69.4,254.8,74.3,253.3,79.6z M265,198.6c3,5.5,5.5,10.2,8.5,15.8C274.8,200.4,276.9,203,265,198.6z M237.6,238.9
		c0.6,5.9,1.1,11.1,1.7,16.8C245.9,247.3,245.8,245.4,237.6,238.9z M80,253.2c-6,1.9-11.1,3.4-17.1,5.3
		C76.3,262.6,73.2,263.3,80,253.2z M124.8,28.4c-0.7-3.6-1.1-6.1-1.7-8.6c-0.2-0.8-1.1-1.8-1.8-1.9c-3-0.4-6-0.5-9.1-0.8
		c-0.1,0.3-0.2,0.6-0.3,0.9C116,21.2,120,24.5,124.8,28.4z M217,271.1c7.7-6,8.2-11.7,1.5-16C218,260.4,217.5,265.6,217,271.1z
		 M272.4,124.4c9.7,0.2,11.9-2.5,10.1-12.3C279.1,116.2,275.9,120.2,272.4,124.4z M172.8,27.1c0.3-0.1,0.6-0.2,0.9-0.3
		c0.5-2.4,1.1-4.8,1.4-7.2c0.1-0.8-0.2-2.2-0.8-2.5c-2.7-1.6-5.5-2.9-8.3-4.3c-0.2,0.2-0.3,0.4-0.5,0.6
		C168,18,170.4,22.5,172.8,27.1z M43.9,239.3c9.1,6.5,11.6,6.2,16.8-1.7C55.1,238.2,49.9,238.7,43.9,239.3z M273.4,172.8
		c0,0.3,0,0.6,0.1,0.9c2.6,0.6,5.2,1.3,7.9,1.7c0.5,0.1,1.5-0.4,1.7-0.9c1.5-2.7,2.9-5.5,4.3-8.3c-0.2-0.2-0.5-0.4-0.7-0.6
		C282.3,168.1,277.8,170.5,273.4,172.8z M288.5,162.2c-2.3-11.5-4.7-13.4-13.1-10.7C279.6,154.9,283.7,158.3,288.5,162.2z
		 M124.5,272.4c-4.3,3.5-8.4,6.9-13.1,10.7C123.7,282.7,124.6,281.9,124.5,272.4z M196.9,265.7c-1.5,5.1-2.9,9.7-4.3,14.4
		c-0.2,0.6-0.2,1.1-0.4,1.9c9.1-5.7,9.4-6.6,5.7-15.1C197.8,266.6,197.6,266.4,196.9,265.7z M149.1,274.8
		c-3.8,4.6-7.1,8.6-10.6,12.9C148.6,286.6,150,285,149.1,274.8z M101.2,265c-5.2,2.8-9.8,5.3-14.9,8
		C96.5,275.6,98.2,274.7,101.2,265z M139.8,10.3c6.3,3.5,12.7,4.7,19.7,0C152.5,10.3,146.2,10.3,139.8,10.3z M185.9,14.4
		c-6.1-1.2-12.2-2.3-18.3-3.5C173.3,16.5,177.7,17.4,185.9,14.4z M112.8,14.8c6.9,2.6,13.1,2.1,19.1-3.9
		C124.9,12.3,118.8,13.6,112.8,14.8z M140.8,289.4c6.5,0,12.5,0,19.4,0C153.2,286,147.2,285.2,140.8,289.4z M285.7,185.6
		c1.1-5.9,2.3-11.9,3.4-17.8C284.4,173,282.4,178.7,285.7,185.6z M289.8,140.5c-3.4,5.9-4.4,11.9,0,18.7
		C289.8,152.5,289.8,146.5,289.8,140.5z M194.5,17.1c4.2,5.3,9.1,9.2,17.5,7.1C205.6,21.6,200.1,19.4,194.5,17.1z M87.5,24.5
		c6.9,0.9,13-0.4,17.4-7.4C98.6,19.8,93.1,22.1,87.5,24.5z M10.2,141.2c0,6.5,0,12.3,0,19C13.5,153.4,14.1,147.6,10.2,141.2z
		 M283.2,105.4c-2.8-6.5-5.1-12.1-7.5-17.7C274.7,94.7,276.2,100.7,283.2,105.4z M261.2,64.6c0,7.3,3.2,12.3,10.7,15.7
		C267.9,74.5,264.5,69.6,261.2,64.6z M289.1,131.2c-1.2-5.9-2.4-11.8-3.7-17.8C283.1,123.5,283.2,124.3,289.1,131.2z M64.1,39.2
		c7-0.3,12.3-2.9,14.6-10C73.9,32.5,69,35.9,64.1,39.2z M219.8,28.5c2.9,6.3,7.3,10.4,15.6,10.3C229.7,35,224.7,31.8,219.8,28.5z
		 M219.8,271.5c5.8-3.9,10.7-7.2,15.6-10.5C228.3,261.1,223.2,264.1,219.8,271.5z M282.9,194.8c-5.2,4.2-8.9,9-6.9,16.9
		C278.5,205.6,280.7,200.2,282.9,194.8z M14.2,113.8c-1.3,6.8-2.4,12.6-3.5,18.4C15.2,127,17.4,121.5,14.2,113.8z M114.2,285.4
		c5.7,1.1,11.5,2.2,17.2,3.3C126.4,283.6,120.7,282.5,114.2,285.4z M194.6,282.8c6.3-2.7,11.8-4.9,17.2-7.2
		C204.9,274.4,199.3,276.3,194.6,282.8z M57.2,255c-1.6-6.5-4.8-11.3-11.6-12.4C49.5,246.8,53.3,250.9,57.2,255z M186.2,285.3
		c-6.4-2.3-12.2-2.2-16.9,3.3C175,287.5,180.6,286.4,186.2,285.3z M44.2,57.6c6.9-1.3,11.4-5,13.1-12.7
		C52.4,49.6,48.3,53.6,44.2,57.6z M104.8,282.6c-4-5.5-9.1-8.5-17-7.1C94,278.1,99.4,280.3,104.8,282.6z M23.7,88.8
		c-2.2,5.4-4.5,10.8-7.1,17.2C22.9,101.2,25,95.8,23.7,88.8z M242.7,253.9c3.9-3.8,8-7.8,12.6-12.2C248.6,244,244,247.5,242.7,253.9
		z M14.4,186.5c2.9-6.5,1.6-12.9-3.6-17.8C12,174.8,13.2,180.4,14.4,186.5z M255.3,57.7c-4.7-4.8-8.9-9-13-13.3
		C243.8,51.3,247.4,56.1,255.3,57.7z M23.8,211.2c1.3-6.6-0.5-12-6.8-16.4C19.4,200.8,21.6,206,23.8,211.2z M65.6,261.8
		c4.6,3.1,9.3,6.1,13.9,9.2C76.8,265.1,72.7,261.3,65.6,261.8z M38.3,65c-3.7,5.6-6.8,10.4-9.9,15.2C34.4,77.3,38.2,73,38.3,65z
		 M271.4,220.1c-5.9,2.8-10.1,6.9-9.9,14.8C265.1,229.5,268.2,224.8,271.4,220.1z M28.4,219.9c3.8,5.6,7,10.4,10.2,15.2
		C38.3,228.3,35.7,223.1,28.4,219.9z"/>
	<path d="M84.6,248.2c-7,2.2-13.4,4.3-20.3,6.5c0.8-7.1,1.6-13.8,2.4-21.1c-7.1,0.8-13.8,1.6-21.2,2.4c2.2-7,4.3-13.4,6.4-20.2
		c-7.1-0.6-13.8-1.2-21.2-1.8c3.5-6.3,6.8-12.3,10.3-18.6c-6.9-2-13.3-3.8-20.5-5.9c4.7-5.5,9.1-10.7,13.8-16.2
		c-6.4-3.3-12.4-6.4-19-9.8c5.7-4.5,10.9-8.7,16.7-13.2c-5.6-4.4-11-8.7-16.8-13.2c6.5-3.3,12.5-6.4,19-9.7
		c-4.6-5.4-9-10.6-13.7-16.2c7-2,13.5-3.9,20.4-5.9c-3.5-6.3-6.8-12.3-10.3-18.6c7.3-0.6,14.1-1.2,21.2-1.9
		c-2.2-6.8-4.3-13.1-6.5-20.2c7.3,0.8,13.9,1.6,21.2,2.4c-0.8-7-1.5-13.7-2.4-21.1c7,2.2,13.4,4.3,20.3,6.5c0.6-7,1.1-13.8,1.7-21.2
		c6.5,3.6,12.4,6.8,18.6,10.3c2-6.9,3.8-13.3,5.9-20.5c5.5,4.7,10.7,9.1,16.2,13.8c3.3-6.4,6.4-12.4,9.8-19
		c4.6,5.8,8.7,11,13.3,16.7c4.4-5.6,8.6-10.9,13.2-16.8c3.4,6.5,6.5,12.6,9.8,18.9c5.5-4.6,10.6-9,16.2-13.8
		c2,6.9,3.9,13.4,5.9,20.5c6.3-3.5,12.1-6.8,18.6-10.4c0.6,7.4,1.2,14,1.8,21.2c6.8-2.2,13.3-4.3,20.3-6.5c-0.8,7.2-1.6,14-2.4,21.1
		c7.1-0.8,13.8-1.6,21.1-2.4c-2.2,7-4.2,13.4-6.4,20.2c7.1,0.6,13.8,1.1,21.2,1.8c-3.5,6.4-6.7,12.3-10.2,18.6
		c6.9,2,13.4,3.8,20.5,5.8c-4.6,5.5-9,10.7-13.8,16.3c6.3,3.2,12.4,6.3,19,9.7c-5.7,4.6-11,8.8-16.6,13.3
		c5.6,4.5,10.9,8.6,16.6,13.2c-6.4,3.3-12.4,6.4-18.9,9.8c4.6,5.4,9,10.6,13.7,16.2c-7,2-13.4,3.9-20.4,5.9
		c3.4,6.2,6.7,12.1,10.3,18.6c-7.3,0.6-13.9,1.2-21.2,1.8c2.2,6.8,4.2,13.2,6.5,20.2c-7.3-0.8-14-1.5-21.2-2.3
		c0.8,7.1,1.6,13.8,2.4,21.1c-7-2.2-13.5-4.3-20.3-6.4c-0.6,7.2-1.1,13.9-1.8,21.2c-6.4-3.6-12.4-6.8-18.6-10.3
		c-2,6.9-3.8,13.4-5.9,20.5c-5.5-4.7-10.6-9-16.3-13.8c-3.2,6.3-6.3,12.3-9.7,19c-4.6-5.7-8.8-11-13.3-16.6
		c-4.5,5.7-8.7,11-13.3,16.6c-3.3-6.5-6.4-12.4-9.8-18.9c-5.4,4.6-10.6,9-16.2,13.8c-2-6.9-3.9-13.5-5.9-20.5
		c-6.3,3.5-12.2,6.7-18.6,10.3C85.7,262,85.2,255.4,84.6,248.2z M266.1,150.2C265.6,85.7,213.5,34,149.5,34.4
		C85.6,34.8,33.6,86.8,34,150c0.4,64.8,52.6,116.2,117.6,115.8C214.3,265.4,266.5,212.6,266.1,150.2z M148.5,268
		c-10.6,2.4-11.7,3.9-10.1,12.8C141.8,276.5,144.9,272.6,148.5,268z M112.7,276.5c4.6-3.9,8.3-7.2,12.1-10.5
		C113.4,266.7,115.7,264.5,112.7,276.5z M64.5,232.5c-6.8-5.6-10.9-5.1-15.1,1.9C54.5,233.7,59.3,233.1,64.5,232.5z M281,138.1
		c-10.1-0.4-12.6,1.7-12.2,9.7C272.8,144.6,276.7,141.5,281,138.1z M88.9,266.6c4.8-2.7,9.1-5.1,13.9-7.8
		C91.9,256.7,93.1,256.2,88.9,266.6z M234.2,49c-7.5,6.9-7.9,10.7-1.8,15.1C233,59.2,233.5,54.5,234.2,49z M112.4,24
		c1.2,9.4,4.2,11.8,11.6,9.9C120.2,30.7,116.6,27.6,112.4,24z M189,24.4c-4.3,10.7-4.8,9,4.3,15.6C191.9,34.8,190.6,30,189,24.4z
		 M280.6,164c-8.8-2.7-11.9-1-13.7,6.9C271.5,168.7,275.7,166.5,280.6,164z M266.3,89.2c-8.7,2.1-10.5,5.3-7.4,13.3
		C261.4,98.1,263.8,93.8,266.3,89.2z M232.5,235.3c-5.5,6.7-4.9,11.4,1.9,15.1C233.7,245.3,233.1,240.5,232.5,235.3z M276.3,112.8
		c-9.4,1.1-11,3-10.3,12.1C269.5,120.7,272.7,116.9,276.3,112.8z M189.5,275.2c1.4-5.1,2.8-9.9,4.2-15.1
		C185.6,264.9,184.8,267.8,189.5,275.2z M164.4,280.1c2.2-4.4,4.4-8.7,7.1-14C162.4,270.3,162.4,270.3,164.4,280.1z M171.2,34
		c-2.7-5.2-4.9-9.5-7.3-14.2C161.1,28.7,161.5,29.5,171.2,34z M88.7,33.9c4,10.3,3.3,9.8,13.5,7.5C97.7,38.9,93.4,36.5,88.7,33.9z
		 M264.9,212.9c-6.3-5.9-9.6-5.7-14.8,1.1C255.2,213.6,259.9,213.3,264.9,212.9z M197,258.4c5,2.8,9.2,5.1,14,7.8
		C206.8,256.2,208.5,256.7,197,258.4z M258.9,197.3c-2.1,8.9-1,10.9,7.8,13.8C264,206.3,261.6,202,258.9,197.3z M275.5,189.1
		c-8.2-4.5-10.9-3.8-15,4.2C265.6,191.9,270.3,190.6,275.5,189.1z M232.7,252.2c-5.7-8.4-9-9.3-14.6-4.7
		C222.8,249,227.3,250.4,232.7,252.2z M152.1,268.3c3.3,4.1,6.3,7.9,9.6,12.1C162.8,271.7,161.1,269.5,152.1,268.3z M67.6,252.4
		c5.1-1.7,9.8-3.2,14.9-5C73.7,243.5,71.9,244.1,67.6,252.4z M252.2,67.8c-8,3.9-9.2,7.4-4.7,14.5C249.1,77.4,250.6,72.8,252.2,67.8
		z M137.7,19.1c-0.1,10.5,1.6,12.5,9.6,12.1C144.2,27.3,141.3,23.5,137.7,19.1z M250.6,234c-5.5-7.1-8.9-7.5-14.9-1.7
		C240.8,232.9,245.5,233.4,250.6,234z M214.3,249.2c-6.9,7.4-7,9.3-1.1,16.1C213.5,260,213.9,255.1,214.3,249.2z M24.2,189.4
		c5.6,1.5,10.2,2.8,15.4,4.3C34.3,185.4,33.7,185.2,24.2,189.4z M110.8,274.8c4-9.1,3.6-10.3-4-14.4
		C108.1,265.5,109.4,270.2,110.8,274.8z M268.6,152.1c1.8,9.6,3.9,11.2,12.2,9.4C276.8,158.4,273,155.5,268.6,152.1z M50,214.3
		c-6.5-7.2-10.1-7.3-14.9-1.1C39.9,213.5,44.6,213.9,50,214.3z M266.1,175.3c-0.7,8.7,1,10.7,10.1,11.7
		C272.7,182.9,269.5,179.3,266.1,175.3z M212.8,34.8c-5.9,8-5.6,11.1,1.2,14.9C213.6,44.9,213.3,40.3,212.8,34.8z M64.1,68
		c-5.4-0.6-10-1.2-15.2-1.8C55.2,73.3,56.7,73.5,64.1,68z M175.1,265.6c4.3,3.6,8,6.8,12.3,10.5
		C184.6,265.1,186.3,266.2,175.1,265.6z M19.2,164.3c5,2.5,9.2,4.6,14.1,7.1C28.4,161.9,30.6,161.7,19.2,164.3z M247.5,217.3
		c-3.6,9.2-2.7,11.7,4.8,14.7C250.8,227.3,249.3,222.7,247.5,217.3z M18.9,138.4c4.2,3.3,8,6.2,12.3,9.6
		C29.1,138.4,28.2,137.7,18.9,138.4z M24.2,111.2c9.3,4,11.4,3.4,14.5-4C34,108.5,29.5,109.7,24.2,111.2z M260.6,106.7
		c4.9,7.7,7.5,8.4,14.4,4C270.3,109.4,265.8,108.1,260.6,106.7z M128.9,266.4c2.6,5,4.7,9.2,7.3,14.2
		C137.8,269.3,139,271.3,128.9,266.4z M235.3,67.8c8,5.3,10,5,15.1-1.8C245.4,66.6,240.8,67.1,235.3,67.8z M280.8,136
		c-5-2.5-9.2-4.6-14.1-7C270.6,137.8,271.4,138.2,280.8,136z M81.7,52.8c-4.7-1.6-9.3-3.1-14.2-4.7C71.6,56.2,74.3,57.1,81.7,52.8z
		 M23.9,187.4c9.6-1.8,10.3-2.6,9.8-11.5C30.3,179.8,27.3,183.4,23.9,187.4z M65.9,251.2c7.1-7.3,7.3-10.3,1.8-14.9
		C67.1,241,66.5,245.6,65.9,251.2z M161.7,19.3c-3.4,4.4-6.3,8.1-9.5,12.2C161.2,30,162.2,28.7,161.7,19.3z M198,41.1
		c9.3,1.7,10,1.3,12.7-7.2C206.2,36.5,202.1,38.8,198,41.1z M48.9,86.3c-4.5,0.4-9,0.8-14.3,1.2C43.9,93.4,41.4,93.6,48.9,86.3z
		 M41.2,197.7c-2.7,4.7-4.9,8.7-7.6,13.4C42.7,207.5,43.2,206.5,41.2,197.7z M47.8,232.7c8.3-5.6,8.8-7.4,4.7-14.4
		C50.9,223,49.5,227.5,47.8,232.7z M217.8,52.7c9.9,3.3,7.9,4.4,14.7-4.8C227.5,49.5,223,51,217.8,52.7z M33.8,124.9
		c-0.3-9.6-2-11.6-9.8-11.3C27.2,117.2,30.3,120.8,33.8,124.9z M52.4,82.5c3.2-9.2,2.5-11.1-4.7-14.1C49.2,72.9,50.6,77.2,52.4,82.5
		z M40.8,102.5c1.9-9.4,1-11.1-7.3-12.9C35.9,93.8,38.2,97.8,40.8,102.5z M135.5,20.3c-2.1,4.1-4.1,8.2-6.4,12.7
		C137.1,30.3,137.2,30.1,135.5,20.3z M175.4,34.1c8.5,0.7,10.5-1.1,11.2-9.6C182.8,27.8,179.3,30.8,175.4,34.1z M106.5,39.6
		c7.6-5,8.1-6.7,3.9-14.1C109.2,30.2,107.9,34.5,106.5,39.6z M67.4,64.4c5.3-7.1,4.9-10.4-1.7-14.2C66.3,54.9,66.8,59.4,67.4,64.4z
		 M19.3,161.9c8.7,0.9,10.5-0.5,11.6-9.1C27,155.8,23.5,158.6,19.3,161.9z M250.3,86c5.7,6.5,8.2,6.6,14.6,1.1
		C260.1,86.8,255.5,86.4,250.3,86z M86,250.4c0.4,5.1,0.8,9.7,1.2,14.9C92.6,257.5,92.5,255.6,86,250.4z M33.2,129.2
		c-5,2.6-9.2,4.6-13.9,7C28.9,138.5,28.9,138.5,33.2,129.2z M86.9,35.2c-0.4,5.3-0.7,9.9-1.1,14.9C92.2,43.9,92.3,42.6,86.9,35.2z
		 M42.9,102.1c2.6-4.9,4.7-8.9,7.3-13.7C42.5,93.6,42.5,93.6,42.9,102.1z M63.9,70.6c-7.9,2.5-9.4,4.5-9.1,11.2
		C57.7,78.2,60.6,74.6,63.9,70.6z M32.7,154.8c-3.6,5.8-3.4,8,1.4,14C33.6,163.9,33.2,159.5,32.7,154.8z M64,229.6
		c-3.2-3.8-6-7.2-9-11C55,224.9,57.7,228.3,64,229.6z M35.8,123c1.4-4.5,2.6-8.6,4.1-13.3C34.7,113.3,33.2,117.4,35.8,123z
		 M69.8,64.7c3.9-3.2,7.3-6.1,11-9.2C74.4,55.4,71,58.4,69.8,64.7z M81.4,245c-3.9-3.2-7.2-5.9-10.8-8.9
		C72.4,243,73.4,243.9,81.4,245z M100.3,44c-6.4-1.4-9.8,1.4-12.3,6.7C92.2,48.4,96,46.3,100.3,44z M32.7,145.4
		c0.4-4.5,0.9-8.8,1.3-13.6C29.2,137.8,29,140.1,32.7,145.4z M35.8,177.3c-2.4,5.9-1.1,10,4.1,13.4C38.5,186.1,37.3,182,35.8,177.3z
		 M218.4,55.1c3.8,3.1,7.1,5.8,10.9,8.8C228.1,57.6,224.5,55.1,218.4,55.1z M245.1,218.5c-3.1,3.8-5.8,7.1-8.7,10.7
		C242.4,228,245,224.6,245.1,218.5z M198.8,43.6c4.1,2.2,7.9,4.1,12.1,6.4C208.5,44.2,204.6,42.4,198.8,43.6z M122,36.3
		c-6.7-2.2-9.6-1.2-12.7,4C113.4,39,117.4,37.7,122,36.3z M219.3,244.5c7.4-0.9,8.4-1.7,10.2-8.4C226.1,238.8,223,241.4,219.3,244.5
		z M88.7,249.9c3.6,6.6,5.8,7.7,11.6,6.1C96.4,254,92.7,252,88.7,249.9z M256.4,199.2c-2.1,4-4.1,7.7-6.3,11.8
		C255.5,208.6,258,205.1,256.4,199.2z M144.6,33.1c-6.4-3.5-9.3-3.1-13,1.4C135.8,34,139.9,33.6,144.6,33.1z M154.7,33
		c4.3,0.4,8.4,0.9,12.9,1.3C162.3,29.8,160.5,29.6,154.7,33z M267.3,144.7c3.3-6.6,3-8.7-1.4-12.7
		C266.3,136.1,266.8,140,267.3,144.7z M176.9,36.1c4.8,1.4,8.6,2.6,12.8,3.8C186.8,34.8,182.7,34.1,176.9,36.1z M49.9,211.1
		c-2.3-4.2-4.2-7.8-6.5-11.9C42.6,205,43.9,209,49.9,211.1z M249.7,88.6c2.3,4.2,4.3,7.7,6.5,11.7C257.4,94.5,255.3,91,249.7,88.6z
		 M167.9,265.8c-4.2,0.4-8,0.8-12.4,1.3C161.8,270.4,163,270.3,167.9,265.8z M211.2,249.9c-4.1,2.2-7.6,4.2-11.7,6.4
		C205.3,257.1,209,255.4,211.2,249.9z M260,109.4c1.4,4.6,2.6,8.3,3.8,12.4C266.2,115.8,265.8,114.3,260,109.4z M267.2,155
		c-0.4,4.4-0.8,8.2-1.2,12.6C270,163.6,270.6,159.8,267.2,155z M260.3,189.8c5.3-4,5.8-5.5,3.8-12.3
		C262.7,181.9,261.6,185.7,260.3,189.8z M132.3,265.8c5.1,4.5,7.3,4.6,11.7,1.1C140.3,266.6,136.6,266.2,132.3,265.8z M244.6,80.9
		c-1.1-7.7-2-8.7-8.5-10.1C238.9,74.1,241.5,77.2,244.6,80.9z M109.9,260.1c5,5.7,6.1,6,12.3,3.7
		C118.3,262.6,114.6,261.5,109.9,260.1z M177.9,263.8c5.8,1.9,8.2,2.2,11.8-3.5C185.6,261.5,181.9,262.6,177.9,263.8z"/>
	<path d="M263.9,150.6c-0.5,63-51.9,113.7-114.9,113.2c-62.6-0.6-113.3-51.8-112.9-114c0.4-62.6,52-113.6,114.3-113
		C213.4,37.3,264.3,88.4,263.9,150.6z M150.4,37.8c-62-0.1-112.9,50.4-113,111.9c-0.1,62,50.2,112.8,111.9,113
		c62.8,0.2,113.4-50.4,113.4-113.4C262.6,88.5,211.6,37.9,150.4,37.8z"/>
	<path d="M150,39.6c62,0.4,110.9,49.9,110.5,111.9c-0.4,60.5-50.5,109.3-111.9,109c-60.1-0.3-109.7-50.7-109.3-111
		C39.7,88.8,89.7,39.2,150,39.6z M243.4,207.1c1.8-3.4,3.5-6.3,4.9-9.3c0.3-0.7,0-2-0.4-2.7c-6.9-10.5-10.1-22.3-11.1-34.6
		c-1.6-19.4,0.4-38.2,10.7-55.4c0.5-0.9,1.1-2.3,0.7-3c-1.4-3.1-3.2-6.1-5-9.6c-9.6,14.2-21.5,24.8-35.6,33.2
		c-14.1,8.4-29.3,13.4-45.9,14.7c0.9,2,1.9,3.4,2.2,4.9c0.4,3.1,2,3.3,4.7,2.9c15.7-2.2,30.3-7.4,43.9-15.4c6.8-4,13-9,19.1-13.2
		c-6.3,20.1-6.5,40.9,0.5,62.1c-19-18.4-41.9-27-67-30.7c-1.2,3.1-2.1,5.6-3,8.1C202.5,166.8,216.7,175.1,243.4,207.1z M92.7,243.1
		c2.8,1.6,5.3,3.1,7.9,4.3c0.9,0.4,2.5,0.3,3.4-0.3c11.2-6.8,23.4-10,36.3-10.9c19.2-1.4,37.7,1,54.4,11.4c0.8,0.5,2.3,1,3,0.7
		c3.2-1.5,6.4-3.3,9.8-5.2c-27.9-20.4-44.5-47.1-48.1-81.4c-1.5,0.7-2.7,1.4-3.9,1.9c-1.2,0.5-2.5,0.9-4.2,1.4
		c3.9,25.2,12.5,47.9,30.8,66.9c-21.5-7.1-42.4-6.9-63.5-0.1c17.7-19.1,26.9-41.5,30.3-66.7c-3.1-1.2-5.6-2.1-8.2-3.1
		C137,196.2,120.6,222.6,92.7,243.1z M118.9,68c31.2,6.7,35.4,6.7,63.1-0.1c-18.4,18.8-26.9,41.8-30.7,67c3,1.2,5.5,2.2,8.1,3.2
		c3.6-34.2,20-60.8,47.2-81c-6.4-5.5-8-5.7-14.6-2.1c-1.4,0.8-2.9,1.6-4.4,2.1c-28,10.3-55.3,9.6-81.8-4.8c-1-0.5-2.5-0.9-3.3-0.6
		c-3.1,1.4-6.1,3.2-9.5,5c27.9,20.5,44.3,47.2,47.8,81.5c1.5-0.7,2.8-1.3,4-1.8c1.2-0.5,2.5-0.9,4.2-1.6
		C145.6,109.4,136.3,86.9,118.9,68z M56.6,207.1c20.7-27.9,47.3-44.3,81.5-47.8c-0.7-1.7-1.8-3.3-2-4.9c-0.4-2.7-1.7-3.3-4.1-2.7
		c-6.9,1.6-14,2.8-20.7,4.9c-16.1,5.1-30.9,12.7-43.5,25.6c6.9-21.7,6.9-42.6,0.2-63.1c4.6,3.6,9.1,7.6,14.1,10.8
		c5,3.3,10.4,6.1,15.8,8.6c10.8,5,22.1,8.6,34,10c1.2,0.1,3.1-0.4,3.6-1.2c1.2-1.9,1.7-4.3,2.5-6.5c-34.2-3.6-60.8-19.9-81.1-47.4
		c-0.5,0.5-0.8,0.8-1.1,1.2c-1.2,2.1-2.5,4.1-3.3,6.3c-0.5,1.3-0.5,3.2,0.1,4.4c15.4,30.1,15.7,60-0.2,90c-0.5,1-0.7,2.6-0.3,3.6
		C53.3,201.5,54.9,204,56.6,207.1z M139.1,139.8c0.1-1.8,0.2-2.3,0.1-2.7c-3.4-32.9-19.2-58.6-45.6-78c-1.9-1.4-3.1-0.7-4.6,0.3
		c-11.8,7.9-21.5,17.8-29.7,29.4c-1.6,2.2-1.4,3.8,0.2,5.9c15.2,20.7,35.2,34.5,59.8,41.4C125.6,137.8,132.2,138.5,139.1,139.8z
		 M140.2,160.8c-2.5,0-3.6-0.1-4.7,0c-31.9,3.8-57,19.3-76.2,44.8c-1.7,2.2-1.2,3.9,0.2,5.9c7.9,11.2,17.5,20.8,28.8,28.7
		c2.2,1.5,3.7,1.7,5.9,0.1c19.9-14.2,33.4-33.1,40.8-56.3C137.4,176.7,138.4,169,140.2,160.8z M161.2,160.2
		c-0.2,1.5-0.4,1.9-0.3,2.3c3.3,32.9,19,58.6,45.4,78.1c1.8,1.3,3.1,1.3,5,0c11.8-8.1,21.6-18.1,29.7-29.8c1.4-2,0.8-3.3-0.4-4.9
		c-15.2-21.2-35.6-35.1-60.6-42.1C174,162,167.7,161.4,161.2,160.2z M160.8,139c1.5,0,2.5,0.1,3.5,0c32.4-3.7,57.7-19.4,76.8-45.6
		c1.4-2,0.4-3.2-0.6-4.6c-8-11.7-17.9-21.4-29.6-29.5c-2-1.4-3.4-1.2-5.3,0.2c-15.9,11.3-27.5,26-35.8,43.5
		C164.6,114.2,161.4,126.1,160.8,139z M136.6,150c0,7.3,6,13.4,13.2,13.5c7.4,0.1,13.7-6,13.7-13.4c0-7.3-5.9-13.4-13.3-13.5
		C142.7,136.5,136.6,142.5,136.6,150z M250.4,194.6c0.1-2,1.1-4.3,0.3-5.8c-4.7-8.9-7.1-18.4-7.9-28.3c-1.4-16.7,0-33,7.9-48.1
		c1.6-3.1,0.2-5-1.4-7.4C233,127.5,233.8,175.1,250.4,194.6z M50.6,195c17-22.7,15.3-70.8-0.5-89.9c-0.6,2.2-1.6,4.9-0.7,6.7
		c3.8,7.6,6.2,15.6,7.3,23.9c2.4,17.8,1.4,35.2-6.8,51.6C48.4,190.3,48.5,192.4,50.6,195z M194.4,249.5c-20.8-16.9-71.2-16.1-91,0.2
		c3,0.3,5.6,1.5,7.3,0.6c10.5-5.3,21.6-7.7,33.2-8.2c14.9-0.7,29.5,0.8,42.9,7.9C189.6,251.5,191.8,251.6,194.4,249.5z M186.8,48.5
		c-23.7,0-47.4,0-71.7,0C132.2,59.1,172.1,59.3,186.8,48.5z M186,251.1c-19-11.3-58.2-9.8-72.5,0C137.9,251.1,161.6,251.1,186,251.1
		z M105.8,50.3c22.2,17,72.1,15.7,90.3-0.1c-2.6-0.3-5-1.3-6.4-0.6c-8.9,4.7-18.4,7-28.3,7.8c-16.5,1.3-32.5-0.3-47.4-8
		C110.7,47.8,108.5,48.7,105.8,50.3z M48.6,114.2c0,24.5,0,48.1,0,72.2C59,171.6,59.1,130.7,48.6,114.2z M250.4,185.9
		c0.3,0,0.6-0.1,0.9-0.1c0-23.6,0-47.2,0-70.8c-0.3,0-0.7,0-1,0C241.2,138.6,241,162.2,250.4,185.9z M150.8,125.9
		c3.1-9.1,5.7-18.5,9.6-27.3c3.9-8.8,9.2-17,13.7-25.1c-6.9,4.3-14.2,8.7-21.5,13.4c-0.9,0.6-1.8,1.9-1.8,2.9
		C150.7,101.8,150.8,113.9,150.8,125.9z M174.6,226.5c-11.7-15.8-18.9-33.6-23.5-52.5c-0.4,12-0.4,23.8-0.3,35.7
		c0,1.1,0.9,2.6,1.8,3.2C159.9,217.5,167.3,221.9,174.6,226.5z M226,126.8c-15.8,10.7-33,17.8-51.4,22.3c11.8,0.3,23.6,0.3,35.3,0.2
		c0.9,0,2.2-0.6,2.7-1.3C217.2,141,221.6,133.9,226,126.8z M125.4,149.4c-18.6-4.7-35.8-12.1-51.5-23.3c4.2,7.4,8.6,14.5,13.1,21.5
		c0.6,0.9,1.9,1.7,2.9,1.7C101.8,149.5,113.6,149.4,125.4,149.4z M226.6,174.2c-4.3-6.9-8.7-13.8-12.9-20.9
		c-1.3-2.1-2.8-2.8-5.1-2.8c-7.7,0.1-15.5,0-23.2,0c-3.6,0-7.3,0-10.9,0C193.2,155.6,210.8,162.6,226.6,174.2z M73.4,174
		c8.1-4.5,16.2-9.8,24.9-13.7c8.7-3.9,18-6.4,27.6-9.7c-12.3,0-24.2,0-36,0.1c-1,0-2.4,0.8-3,1.7C82.2,159.7,77.6,167.2,73.4,174z
		 M114.3,252.7c23.2,8.3,46.6,8.7,70,1c0-0.3,0-0.7,0-1C161,252.7,137.6,252.7,114.3,252.7z M148.9,125.1c0.3-0.4,0.5-0.6,0.5-0.8
		c0.1-11.5,0.1-23,0.1-34.5c0-0.9-0.5-2.1-1.2-2.5c-7.2-4.6-14.5-9.1-21.7-13.6C137.4,89.5,144.6,106.5,148.9,125.1z M126.5,225.9
		c7.1-4.4,14.2-8.7,21.2-13.3c1-0.6,1.7-2.4,1.7-3.7c0.2-4.9,0.1-9.7,0.1-14.6c0-6.5,0-13,0-19.6
		C144.6,193.2,137.4,210.3,126.5,225.9z M47,185c0-23.3,0-46.5,0-69.8C38.5,138.5,38.6,161.7,47,185z M253.2,115.4c0,23,0,46,0,69
		C261.4,161.4,261.4,138.4,253.2,115.4z M116.5,47c22.8,0,45.6,0,68.5,0C167.1,39.4,138.1,38.3,116.5,47z M227.7,126.2
		c-4.8,7.7-9.5,15.2-14,22.7c-0.4,0.7,0,2.1,0.5,3c2.2,3.8,4.6,7.4,6.9,11.1c2.1,3.3,4.2,6.6,6.4,10.1c-0.6-8.1-1.5-15.8-1.5-23.5
		C226,142,227.1,134.4,227.7,126.2z M126.2,227.5c8.2-0.7,15.8-1.8,23.5-1.9c7.6-0.1,15.3,1,23.7,1.6c-7.8-4.8-15-9.4-22.4-13.8
		c-0.5-0.3-1.6-0.3-2.1,0.1C141.4,218,133.9,222.7,126.2,227.5z M173,72.7c-15.6,2.3-31,2.2-46.4-0.7c7.2,4.9,14.5,9.4,21.8,13.9
		c0.7,0.4,2.1,0.6,2.7,0.3C158.5,81.7,165.8,77.2,173,72.7z M72.2,126.4c0.7,8.6,1.8,16.2,1.8,23.7c0,7.5-1,15.1-1.6,23.3
		c4.7-7.5,9.1-14.5,13.3-21.5c0.5-0.8,0.9-2.3,0.5-3C81.8,141.5,77.2,134.3,72.2,126.4z"/>
	<path d="M134.2,134.2c-12.5-1.6-23.5-5.9-34-11.6c-13.3-7.2-25.3-16-34.4-28.3c-2-2.8-2.4-4.9,0.2-7.4C73.2,80,80.3,73,87.4,66
		c2.2-2.2,4.2-2.1,6.8-0.1c15.9,11.9,26.5,27.7,34,45.7c2.6,6.2,4,12.8,5.8,19.3C134.3,131.8,134.1,132.8,134.2,134.2z M130.4,132.8
		c0.2-0.3,0.4-0.7,0.5-1c-0.6-0.6-1.1-1.3-1.7-1.9c-10.4-10.4-21.1-20.6-31.1-31.3c-5.2-5.6-10.7-8.7-18.5-7.6
		c-4.5,0.6-9.1,0.1-13.6,0.1c-0.1,0.4-0.2,0.9-0.4,1.3C82.2,113.9,104.4,126.3,130.4,132.8z M92.2,65.7c-0.4,0.2-0.8,0.4-1.3,0.6
		c0,7.6-0.1,15.2,0.1,22.7c0,1,1.1,2.2,1.9,3c12.2,12.2,24.4,24.4,36.6,36.5c0.8,0.8,1.7,1.6,2.6,2.4
		C126.7,104.2,113.7,82.2,92.2,65.7z M65.4,88.4c0.3,0.5,0.6,1,0.9,1.5c7.3,0,14.6,0.1,21.9-0.1c0.6,0,1.5-1.7,1.6-2.7
		c0.2-4.4,0.1-8.7,0.1-13.1c0-2.5,0-5,0-7.5c-0.5-0.2-1-0.5-1.5-0.7C80.7,73.4,73.1,80.9,65.4,88.4z"/>
	<path d="M134.8,165.3c-1,4.5-1.6,8.4-2.8,12.1c-6.8,22-18.4,40.9-36.6,55.4c-4.5,3.6-4.9,3.8-9.1-0.2c-7.1-6.6-13.8-13.7-20.7-20.5
		c-2.1-2.1-1.8-3.9-0.2-6.2c8.7-12.2,20.4-20.9,33.2-28.1C109.5,171.7,121.1,167.2,134.8,165.3z M66,208.6c7.1,0,14.1,0.2,21-0.1
		c2-0.1,4.4-1.1,5.8-2.4c8.1-7.8,15.9-15.8,23.9-23.8c4.8-4.8,9.7-9.6,14.8-14.7C112,168.4,73.4,191.2,66,208.6z M91,234.1
		c20.5-11.5,40.6-48,41.3-65.2c-0.2,0.1-0.5,0.1-0.7,0.2c-13,12.9-26,25.9-38.9,38.9c-0.7,0.7-1.6,1.8-1.6,2.8
		C90.9,218.4,91,225.9,91,234.1z M66.4,209.6c-0.2,0.3-0.4,0.6-0.6,0.9c6.7,8.6,14.4,16.3,24.1,23.5c0-8.2,0.1-15.3-0.1-22.5
		c0-0.7-1.6-1.8-2.4-1.8C80.3,209.6,73.4,209.6,66.4,209.6z"/>
	<path d="M166.6,164.7c7.7,2.4,15.5,4.4,22.9,7.4c16.4,6.7,31.1,16.1,42.3,30.1c6.5,8.1,6,6.4-0.1,13.1
		c-5.8,6.5-12.6,12.1-18.9,18.2c-2.4,2.3-4.3,2.3-7.1,0.2c-15.9-11.9-26.5-27.8-34-45.8c-2.9-7-4.6-14.4-6.9-21.6
		C165.5,165.8,166,165.3,166.6,164.7z M169.2,167.7c0.3,0.5,0.5,1,0.9,1.3c12.7,12.7,25.5,25.5,38.2,38.2c0.7,0.7,1.7,1.4,2.5,1.4
		c7.7,0.1,15.4,0.1,23.3,0.1C226.2,190.7,187.2,168.1,169.2,167.7z M209.2,233.8c0-7.3,0.1-14.1-0.1-21c-0.1-1.8-0.9-3.9-2.1-5.2
		c-12.3-12.5-24.7-24.8-37.1-37.1c-0.6-0.6-1.4-1.1-2.4-1.9C169.4,190,193.4,227.6,209.2,233.8z M234.1,209.7
		c-7.5,0-14.8-0.1-22.1,0.1c-0.6,0-1.6,1.7-1.6,2.6c-0.2,3.4-0.1,6.7-0.1,10.1c0,3.5,0,7.1,0,11
		C217.7,229.3,231.8,215.2,234.1,209.7z"/>
	<path d="M164.7,133.6c2.7-8.3,4.8-16.4,8-24c7.1-16.6,17.2-31.3,31.6-42.6c4.7-3.7,5.1-4,9.4,0c7.3,6.8,14.1,14.1,21.2,21.1
		c1.6,1.6,1.5,3,0.2,4.9c-6.5,9.6-15.1,16.9-24.6,23.3c-11.8,7.9-24.6,13.9-38.5,17c-1.6,0.4-3.2,0.6-4.8,0.8
		C166.9,134.1,166.5,133.9,164.7,133.6z M168.7,132.2c22.9-1.9,60.5-26.7,65.2-41.2c-7.4,0-14.8-0.1-22.1,0.1
		c-1.2,0-2.7,0.7-3.6,1.5C195.1,105.7,182.1,118.8,168.7,132.2z M166.9,131.1c1.2-0.5,1.5-0.6,1.7-0.7c13-12.9,26-25.9,39-38.9
		c0.7-0.7,1.5-1.6,1.5-2.4c0.1-7.7,0.1-15.4,0.1-23.1c-0.4-0.1-0.8-0.3-1.1-0.4C186.4,82.1,173.5,104.1,166.9,131.1z M234.9,90
		c-7.5-9.6-15-17.3-24.7-24.2c0,8-0.1,15,0.1,21.9c0,0.8,1.4,2.2,2.1,2.2C219.5,90,226.6,90,234.9,90z"/>
</g>
</svg>
